<svg xmlns="http://www.w3.org/2000/svg" viewBox="0 0 24 24" width="48" height="48"><path fill="none" d="M0 0h24v24H0z"/><path fill="#25D366" d="M20.5 3.5A11 11 0 003.4 20.6L2 22l1.4-3.6A11 11 0 1020.5 3.5zM17 15.2c-.4.9-2.3 1.8-3.1 1.9-.9.1-1.6.1-2.9-.4-1.3-.5-2.6-1.3-3.8-2.6-1.2-1.2-2-2.5-2.5-3.8-.5-1.3-.5-2-.4-2.9.1-.9 1-2.8 1.9-3.1.7-.3 1.6-.2 2.6.1.8.3 1.6.8 2.3 1.4.6.6 1.1 1.4 1.4 2.3.3 1 .4 1.9.1 2.6-.3.9-1.9 1.8-2.1 2.1-.1.2-.2.5 0 .8.2.3.6.6.9.9.3.2.6.2.8 0 .3-.3 1.2-1.8 2.1-2.1.6-.2 1.6 0 2.1.1.6.2 1 .6 1 .6z"/></svg>